<svg xmlns="http://www.w3.org/2000/svg" viewBox="0 0 64 80" x="0px" y="0px"><title>Award_27</title><g data-name="Award"><path d="M43,60V57a3,3,0,0,0-3-3V39a1,1,0,0,0-1-1H36.262l.73-5.876a1,1,0,0,0-.243-.786.982.982,0,0,0-.11-.082,14.867,14.867,0,0,0,4.752-2.564q.569-.459,1.1-.978l0,0a14.453,14.453,0,0,0,2.053-2.492,14.99,14.99,0,0,0,0-16.433,14.461,14.461,0,0,0-2.06-2.5A14.9,14.9,0,0,0,32,2q-.739,0-1.468.071a14.866,14.866,0,0,0-7.923,3.237q-.57.459-1.1.978l0,0A14.453,14.453,0,0,0,19.455,8.78a14.99,14.99,0,0,0,0,16.433,14.461,14.461,0,0,0,2.06,2.5,14.926,14.926,0,0,0,5.851,3.542.993.993,0,0,0-.111.082,1,1,0,0,0-.242.787L27.746,38H25a1,1,0,0,0-1,1V54a3,3,0,0,0-3,3v3H16v2H48V60ZM26.852,28.93c-.215-.093-.427-.193-.637-.3-.147-.074-.293-.148-.437-.227-.209-.114-.414-.238-.617-.365-.136-.084-.273-.167-.406-.256-.209-.141-.411-.294-.612-.448-.119-.09-.24-.175-.355-.27-.028-.023-.053-.049-.081-.072a12.888,12.888,0,0,1,2.429-1.587,14.8,14.8,0,0,0,1.785,3.926c-.2-.068-.41-.137-.611-.216C27.156,29.059,27,29,26.852,28.93Zm-3.065-22c.119-.1.243-.185.365-.277.2-.151.4-.3.6-.439.136-.092.276-.177.415-.264.2-.124.4-.245.606-.357.147-.081.3-.157.446-.231q.311-.156.628-.294c.154-.066.308-.13.464-.19.2-.078.4-.148.61-.216a14.788,14.788,0,0,0-1.786,3.927,12.987,12.987,0,0,1-2.429-1.587C23.734,6.982,23.76,6.956,23.787,6.933ZM32,4c1.455,0,3.009,2.026,3.992,5.364A12.993,12.993,0,0,1,32,10a12.993,12.993,0,0,1-3.992-.636C28.991,6.026,30.545,4,32,4Zm5.148,1.07c.215.093.428.193.637.3.147.074.294.148.438.227.209.114.413.237.616.364.136.085.274.168.407.258.207.14.407.291.607.443.12.092.243.179.361.275.027.023.052.048.079.071a12.938,12.938,0,0,1-2.429,1.587,14.788,14.788,0,0,0-1.786-3.927c.206.068.411.138.613.217C36.845,4.941,37,5.005,37.148,5.07ZM32,12a15.009,15.009,0,0,0,4.466-.683A28.844,28.844,0,0,1,36.979,16H27.021a28.844,28.844,0,0,1,.513-4.683A15.009,15.009,0,0,0,32,12Zm4.979,6a28.844,28.844,0,0,1-.513,4.683,14.943,14.943,0,0,0-8.932,0A28.844,28.844,0,0,1,27.021,18ZM32,24a12.993,12.993,0,0,1,3.992.636C35.01,27.974,33.455,30,32,30s-3.01-2.026-3.992-5.364A12.993,12.993,0,0,1,32,24Zm8.211,3.068c-.117.095-.239.182-.358.273-.2.152-.4.3-.607.443-.135.091-.274.175-.412.261-.2.125-.4.247-.61.36-.146.08-.294.155-.443.23-.208.1-.418.2-.63.294-.154.066-.308.13-.463.19-.2.078-.405.148-.61.216a14.788,14.788,0,0,0,1.786-3.927A12.888,12.888,0,0,1,40.293,27C40.265,27.018,40.239,27.045,40.211,27.068Zm2.659-2.941A12.121,12.121,0,0,1,41.721,25.6a14.944,14.944,0,0,0-3.358-2.17A30.742,30.742,0,0,0,38.978,18H44.96A12.865,12.865,0,0,1,42.87,24.127ZM44.96,16H38.978a30.742,30.742,0,0,0-.615-5.431A14.948,14.948,0,0,0,41.721,8.4,12.331,12.331,0,0,1,42.875,9.88,12.853,12.853,0,0,1,44.96,16ZM21.13,9.873A12.208,12.208,0,0,1,22.279,8.4a14.948,14.948,0,0,0,3.358,2.171A30.742,30.742,0,0,0,25.022,16H19.04A12.865,12.865,0,0,1,21.13,9.873ZM19.04,18h5.982a30.742,30.742,0,0,0,.615,5.431,14.944,14.944,0,0,0-3.358,2.17,12.243,12.243,0,0,1-1.154-1.481A12.853,12.853,0,0,1,19.04,18ZM29.134,33h5.734l-.621,5H29.762ZM26,40H38V54H26ZM23,60V57a1,1,0,0,1,1-1H40a1,1,0,0,1,1,1v3Z"/><rect x="27" y="44" width="2" height="2"/><rect x="30" y="44" width="7" height="2"/><rect x="27" y="47" width="4" height="2"/><rect x="32" y="47" width="5" height="2"/><rect x="28" y="41" width="8" height="2"/><rect x="27" y="50" width="10" height="2"/></g><text x="0" y="79" fill="#000000" font-size="5px" font-weight="bold" font-family="'Helvetica Neue', Helvetica, Arial-Unicode, Arial, Sans-serif">Created by Phonlaphat Thongsriphong</text><text x="0" y="84" fill="#000000" font-size="5px" font-weight="bold" font-family="'Helvetica Neue', Helvetica, Arial-Unicode, Arial, Sans-serif">from the Noun Project</text></svg>