<?xml version="1.0" encoding="utf-8"?>
<!-- Generator: Adobe Illustrator 17.0.0, SVG Export Plug-In . SVG Version: 6.00 Build 0)  -->
<!DOCTYPE svg PUBLIC "-//W3C//DTD SVG 1.1//EN" "http://www.w3.org/Graphics/SVG/1.1/DTD/svg11.dtd">
<svg version="1.1" id="Layer_1" xmlns="http://www.w3.org/2000/svg" xmlns:xlink="http://www.w3.org/1999/xlink" x="0px" y="0px"
	 width="86px" height="140px" viewBox="-537.423 124.883 86 140" enable-background="new -537.423 124.883 86 140"
	 xml:space="preserve">
<g>
	<g>
		<path fill="#525F75" d="M-494.424,206.309c0,0-3.409,5.415-3.675,9.946c-0.147,2.52,0.593,5.592,3.604,5.686v0.008
			c0.024,0,0.046-0.004,0.069-0.004c0.024,0.001,0.044,0.004,0.069,0.004v-0.008c3.011-0.094,3.754-3.166,3.605-5.686
			C-491.015,211.725-494.424,206.309-494.424,206.309z M-485.999,187.186c-0.4-0.271-0.993-0.318-1.623,0.307
			c-1.674,1.66-2.12-0.743-3.783-0.647c-0.856,0.05-1.152,0.881-2.434,0.971c0,0-0.91,0-0.917,0
			c-1.284-0.09-1.578-0.921-2.434-0.971c-1.662-0.097-2.109,2.308-3.783,0.647c-0.629-0.625-1.223-0.577-1.623-0.307
			c-1.178,0.799,0.296,2.319,0.899,3.17c0.595,0.838,1.111,1.435,1.61,1.998c2.402,2.706,4.293,5.461,4.778,9.191
			c0.16,1.23,0.128,4.36,1.011,4.36c0.763-0.146,0.852-3.129,1.011-4.36c0.485-3.732,2.376-6.487,4.778-9.191
			c0.499-0.563,1.016-1.161,1.61-1.998C-486.295,189.505-484.821,187.983-485.999,187.186z"/>
		<path fill="#525F75" d="M-492.539,138.18c0.797,0,1.479-0.281,2.049-0.845c0.569-0.563,0.853-1.249,0.853-2.056v-1.7h-1.902v1.68
			c0,0.29-0.103,0.539-0.313,0.742c-0.207,0.204-0.456,0.306-0.748,0.306c-0.289,0-0.538-0.103-0.74-0.306
			c-0.206-0.204-0.309-0.451-0.309-0.742V128.6c0-0.29,0.103-0.54,0.309-0.747c0.204-0.207,0.452-0.31,0.74-0.31
			c0.292,0,0.541,0.103,0.748,0.31c0.21,0.207,0.313,0.456,0.313,0.747v1.427h1.902v-1.386c0-0.803-0.28-1.489-0.844-2.056
			c-0.564-0.57-1.249-0.854-2.056-0.854c-0.803,0-1.488,0.283-2.056,0.847c-0.57,0.567-0.854,1.256-0.854,2.063v6.637
			c0,0.803,0.283,1.486,0.85,2.053C-494.036,137.896-493.347,138.18-492.539,138.18z M-506.783,130.396l1.778,7.627h1.476
			l1.592-7.647v7.647h1.833v-12.169h-2.528l-1.642,8.741l-1.709-8.741h-2.634v12.169h1.833V130.396z M-517.795,130.231h0.001
			l2.523,7.792h1.97v-12.169h-1.833v8.179l-2.434-8.179h-2.061v12.169h1.834V130.231z M-469.82,136.199h-3.164v-10.336h-1.833
			v12.162h4.997V136.199z M-483.258,133.443h1.056c0.798,0,1.477-0.283,2.034-0.853c0.561-0.57,0.842-1.257,0.842-2.056v-1.769
			c0-0.833-0.249-1.52-0.738-2.056c-0.531-0.563-1.242-0.845-2.137-0.845h-2.891v12.162h1.834V133.443z M-483.258,127.737h1.107
			c0.315,0,0.569,0.097,0.761,0.29c0.191,0.196,0.288,0.45,0.288,0.768v1.775c0,0.29-0.103,0.541-0.309,0.748
			c-0.204,0.208-0.452,0.311-0.74,0.311h-1.107V127.737z M-452.192,238.26l-0.264-1.785c-0.075-0.5-0.899-0.99-1.845-1.103
			l-4.478-0.708c0,0-1.44-0.281-1.741-0.832c-0.008-0.015-0.028-0.024-0.028-0.024c-0.105-0.254-0.2-0.49-0.31-0.731
			c-0.107-0.228-0.227-0.45-0.345-0.672c-0.004-0.014,0.008-0.024,0.003-0.039c-0.2-0.522,0.937-0.779,0.937-0.779l3.583-0.636
			c0.778-0.099,1.059-0.524,0.636-0.946l-1.427-1.431l-1.37-1.37c-0.385-0.385-1.287-0.624-2.02-0.536l-3.662,0.271
			c0,0-1.235,0.047-1.838-0.347c-0.008-0.006-0.021-0.007-0.029-0.012c-0.472-0.36-0.965-0.708-1.477-1.045
			c0,0-0.006-0.014-0.014-0.019c-0.514-0.393,0.145-0.818,0.145-0.818l2.171-1.177c0.492-0.219,0.401-0.617-0.193-0.885
			l-2.027-0.921l-1.966-0.895c-0.554-0.251-1.395-0.293-1.886-0.093l-2.593,0.876c0,0-0.918,0.264-1.67,0.038
			c-0.02-0.006-0.035-0.006-0.051-0.008c-0.624-0.217-1.256-0.425-1.902-0.621c-0.01-0.004-0.013-0.008-0.013-0.008
			c-0.703-0.246-0.493-0.728-0.493-0.728l0.848-1.385c0.227-0.272-0.133-0.595-0.799-0.724l-2.284-0.443l-2.249-0.438
			c-0.641-0.124-1.362-0.015-1.613,0.243l-1.482,1.223c0,0-0.566,0.395-1.368,0.331l-0.01,0.001
			c-0.715-0.085-1.439-0.153-2.171-0.211l-0.014-0.004c-0.782-0.092-0.977-0.557-0.977-0.557l-0.35-1.384
			c-0.003-0.052-0.043-0.098-0.08-0.145c0.074,0.432,0.133,0.863,0.158,1.285c0.077,1.311-0.091,2.768-0.69,3.881
			c10.427,0.708,19.756,5.035,21.854,11.129c2.822,8.193-8.023,16.338-24.86,16.338c-16.836,0-27.676-8.145-24.852-16.338
			c2.104-6.101,11.45-10.429,21.888-11.131c-0.598-1.113-0.765-2.569-0.688-3.879c0.025-0.424,0.084-0.856,0.159-1.291
			c-0.04,0.048-0.079,0.097-0.083,0.151l-0.352,1.384c0,0-0.195,0.465-0.977,0.557c-0.736,0.058-1.465,0.128-2.185,0.212
			c-0.792,0.056-1.349-0.332-1.349-0.332l-1.478-1.221c-0.251-0.26-0.971-0.369-1.613-0.244l-2.25,0.436l-2.285,0.443
			c-0.664,0.128-1.024,0.451-0.8,0.722l0.846,1.388c0,0,0.202,0.471-0.467,0.715c-0.681,0.203-1.347,0.421-2.002,0.65
			c-0.751,0.221-1.661-0.04-1.661-0.04l-2.588-0.879c-0.49-0.2-1.333-0.158-1.887,0.093l-1.967,0.892l-2.027,0.92
			c-0.595,0.268-0.686,0.667-0.194,0.886l2.168,1.179c0,0,0.61,0.399,0.177,0.782c-0.562,0.367-1.101,0.748-1.617,1.141
			c-0.618,0.357-1.773,0.315-1.773,0.315l-3.662-0.272c-0.732-0.088-1.634,0.15-2.02,0.535l-1.37,1.37l-1.431,1.43
			c-0.422,0.422-0.142,0.847,0.633,0.946l3.581,0.638c0,0,1.085,0.25,0.938,0.753c-0.136,0.25-0.271,0.501-0.39,0.756
			c-0.12,0.254-0.221,0.509-0.318,0.764c-0.335,0.532-1.718,0.803-1.718,0.803l-4.478,0.706c-0.942,0.113-1.77,0.602-1.843,1.1
			l-0.267,1.785l-0.279,1.871c-0.083,0.557,0.674,0.909,1.689,0.78l4.786-0.399c0,0,1.438-0.058,1.777,0.461
			c0.175,0.593,0.399,1.181,0.674,1.763c0.102,0.622-1.181,1.292-1.181,1.292l-4.499,2.087c-1.003,0.41-1.497,1.17-1.088,1.699
			l1.456,1.892l1.521,1.976c0.452,0.585,1.678,0.682,2.726,0.214l5.039-1.96c0,0,1.631-0.552,2.479-0.086
			c0.716,0.496,1.472,0.978,2.278,1.435c0.756,0.561-0.042,1.668-0.042,1.668l-2.974,3.543c-0.728,0.748-0.552,1.663,0.408,2.034
			l3.391,1.314l3.484,1.352c1.02,0.395,2.406,0.05,3.079-0.761l3.44-3.565c0,0,1.154-1.046,2.417-0.899
			c1.138,0.224,2.303,0.414,3.494,0.571v0.001c1.261,0.25,1.44,1.554,1.44,1.554l0.166,4.247c-0.06,0.938,0.904,1.71,2.157,1.71
			l4.355,0.003h4.353c1.253,0.001,2.22-0.771,2.162-1.708l0.174-4.246c0,0,0.181-1.304,1.445-1.555l0.022-0.008
			c1.167-0.154,2.313-0.34,3.43-0.56l0.008,0.001c1.279-0.167,2.452,0.9,2.452,0.9l3.431,3.568c0.67,0.814,2.058,1.159,3.08,0.764
			l3.489-1.348l3.395-1.313c0.961-0.371,1.138-1.285,0.412-2.034l-2.968-3.547c0,0-0.818-1.132-0.02-1.688
			c0.013-0.008,0.011-0.018,0.021-0.028c0.764-0.436,1.484-0.893,2.165-1.363c0,0,0.044-0.008,0.065-0.018
			c0.846-0.478,2.492,0.083,2.492,0.083l5.036,1.963c1.047,0.47,2.276,0.372,2.726-0.212l1.526-1.976l1.462-1.891
			c0.41-0.529-0.081-1.289-1.084-1.7l-4.494-2.092c0,0-1.369-0.71-1.18-1.348c0.004-0.01-0.005-0.02-0.005-0.02
			c0.251-0.54,0.457-1.081,0.623-1.621c0,0,0.017-0.013,0.021-0.021c0.275-0.578,1.82-0.508,1.82-0.508l4.787,0.401
			c1.016,0.129,1.774-0.222,1.691-0.779L-452.192,238.26z M-513.843,233.075c-1.681,6.238,6.878,12.148,19.398,12.148
			s21.083-5.91,19.406-12.148c-1.428-5.318-10.034-9.087-19.4-9.087C-503.804,223.988-512.411,227.757-513.843,233.075z
			 M-506.591,233.075c0.578-3.425,5.998-5.973,12.152-5.973c6.155,0,11.573,2.547,12.149,5.973
			c0.635,3.784-4.776,7.158-12.153,7.158C-501.819,240.233-507.229,236.86-506.591,233.075z M-474.029,179.052
			c0-11.339-9.226-20.567-20.565-20.567c-11.341,0-20.567,9.228-20.567,20.567c0,10.73,8.265,19.556,18.763,20.474
			c-0.31-0.687-0.679-1.339-1.082-1.975c-8.968-1.395-15.86-9.147-15.86-18.498c0-10.338,8.409-18.746,18.746-18.746
			c10.335,0,18.744,8.409,18.744,18.746c0,9.124-6.557,16.737-15.204,18.398c-0.416,0.646-0.791,1.311-1.11,2.009
			C-481.968,198.252-474.029,189.567-474.029,179.052z M-475.108,166.85l-3.327-11.771c-0.791-2.802-0.67-2.59-3.204-4.262
			c-9.007-5.938-19.624-5.563-27.204,1.655c-1.839,1.749-1.71,1.828-2.387,4.189c-1.003,3.501-2.008,6.902-3.012,10.443
			c4.036-6.621,11.326-11.043,19.646-11.043C-486.381,156.061-479.175,160.37-475.108,166.85z M-519.709,180.712l1.823,0.015v-0.008
			h1.326v-7.995h-1.253l0.267-29.61h45.707v29.61h-1.325v7.995h3.146v-3.489h5.395v-40.076h-1.821v38.254h-3.573v-34.116h-49.333
			l-0.309,34.116h-5.016v-38.254h-1.821v40.075h6.82L-519.709,180.712z M-502.596,188.995c0.4-0.27,0.993-0.318,1.623,0.307
			c1.674,1.66,2.122-0.745,3.783-0.647c0.856,0.05,1.15,0.881,2.434,0.971c0.007,0,0.917,0,0.917,0
			c1.282-0.09,1.578-0.921,2.434-0.971c1.663-0.096,2.109,2.308,3.783,0.647c0.629-0.625,1.223-0.578,1.623-0.307
			c1.178,0.798-0.296,2.319-0.899,3.17c-0.594,0.836-1.111,1.435-1.61,1.998c-0.125,0.141-0.242,0.283-0.365,0.424
			c6.324-2.337,10.854-8.41,10.854-15.536c0-9.14-7.435-16.576-16.575-16.576c-9.139,0-16.577,7.437-16.577,16.576
			c0,7.447,4.94,13.761,11.715,15.845c-0.207-0.245-0.414-0.49-0.63-0.733c-0.499-0.563-1.015-1.16-1.61-1.998
			C-502.3,191.314-503.774,189.794-502.596,188.995z M-494.442,236.847c3.886,0,6.877-1.735,6.689-3.771
			c-0.178-1.928-3.167-3.415-6.688-3.415c-3.519,0-6.51,1.488-6.688,3.415C-501.319,235.112-498.328,236.847-494.442,236.847z"/>
	</g>
</g>
</svg>
