<?xml version="1.0" encoding="UTF-8"?>
<!DOCTYPE svg PUBLIC "-//W3C//DTD SVG 1.0//EN" "http://www.w3.org/TR/2001/REC-SVG-20010904/DTD/svg10.dtd">
<!-- Creator: CorelDRAW 2017 -->
<svg xmlns="http://www.w3.org/2000/svg" xml:space="preserve" width="186.892mm" height="59.5171mm" version="1.0" style="shape-rendering:geometricPrecision; text-rendering:geometricPrecision; image-rendering:optimizeQuality; fill-rule:evenodd; clip-rule:evenodd"
viewBox="0 0 20449.26 6512.23"
 xmlns:xlink="http://www.w3.org/1999/xlink">
 <defs>
  <style type="text/css">
   <![CDATA[
    .fil0 {fill:#F26724}
   ]]>
  </style>
 </defs>
 <g id="Layer_x0020_1">
  <metadata id="CorelCorpID_0Corel-Layer"/>
  <g id="_1280664512">
   <path class="fil0" d="M14352.94 2958.6c-152.63,-61.86 -232.06,-230.67 -181.26,-388.68 47.71,-148.25 199.33,-240.28 352.43,-214.49l58.89 9.99 5.01 -59.49c9.87,-116.99 9.81,-236.11 -0.14,-354l-5.01 -59.47 -58.86 9.96c-166.89,28.23 -325.31,-79.15 -360.93,-244.54 -32.86,-152.1 52.08,-307.68 197.61,-361.91l56.02 -20.88 -25.56 -53.99c-50.4,-106.63 -109.9,-209.66 -176.83,-306.24l-34.05 -49.13 -46.03 38.07c-130.19,107.7 -321.03,93.83 -434.6,-31.59 -104.59,-115.28 -108.67,-292.59 -9.52,-412.45l38.07 -46.03 -49.1 -34.05c-97.01,-67.23 -200.22,-126.68 -306.79,-176.71l-53.99 -25.33 -20.76 55.9c-58.82,158.36 -231.08,241.97 -392.1,190.15 -148.32,-47.68 -240.52,-199.21 -214.52,-352.43l9.99 -58.89 -59.49 -5.01c-117.01,-9.87 -236.15,-9.78 -353.98,0.14l-59.47 5.01 9.96 58.86c28.25,166.72 -79.15,325.2 -244.57,360.77 -151.96,33.07 -307.63,-52 -361.91,-197.5l-20.88 -55.93 -53.99 25.47c-106.51,50.31 -209.57,109.83 -306.21,176.92l-49.04 34.05 38.01 46c107.67,130.25 93.8,321.03 -31.61,434.45 -115.28,104.68 -292.59,108.76 -412.48,9.52l-46.03 -38.15 -34.07 49.16c-67.11,96.78 -126.49,200.05 -176.53,306.87l-25.3 53.96 55.87 20.79c158.33,58.82 241.76,231.02 190,392.04 -47.71,148.4 -199.06,240.69 -352.52,214.46l-58.98 -10.04 -4.95 59.61c-9.81,117.85 -9.73,236.96 0.23,354.03l5.07 59.4 58.8 -9.96c166.72,-28.34 325.2,79.17 360.89,244.54 32.77,152.19 -52.19,307.77 -197.67,361.91l-56.04 20.84 25.56 54.05c50.38,106.51 109.87,209.55 176.8,306.21l34.05 49.13 46.06 -38.04c130.16,-107.52 321.09,-93.74 434.6,31.52 104.54,115.55 108.65,292.92 9.52,412.63l-38.15 46.03 49.18 34.05c96.69,67.02 199.9,126.4 306.82,176.53l53.99 25.33 20.76 -55.9c58.82,-158.33 231.22,-241.79 392.04,-189.97 133.58,42.94 221.65,170.06 218.84,306.82l-1812.25 -1.6c2.69,-88.93 6.19,-260.21 -2.32,-360.86l-5.03 -59.44 -58.82 9.96c-204.39,34.48 -398.7,-97.06 -442.35,-299.78 -40.27,-186.42 63.87,-377.13 242.23,-443.57l56.02 -20.84 -25.56 -54.02c-59.84,-126.57 -130.48,-248.91 -209.97,-363.64l-34.05 -49.16 -46.03 38.1c-159.57,132.01 -393.58,115.07 -532.71,-38.68 -128.19,-141.3 -133.19,-358.69 -11.66,-505.61l38.1 -46.03 -49.13 -34.05c-115.3,-79.87 -237.85,-150.45 -364.25,-209.78l-53.99 -25.33 -20.76 55.9c-72.08,194.11 -283.22,296.62 -480.57,233.05 -181.78,-58.45 -294.8,-244.2 -262.95,-432.03l9.99 -58.89 -59.49 -5.01c-138.82,-11.7 -280.18,-11.64 -420.27,0.14l-59.47 5.01 9.96 58.86c34.65,204.39 -96.99,398.61 -299.72,442.24 -186.17,40.42 -377.11,-63.78 -443.63,-242.11l-20.88 -55.93 -53.99 25.47c-126.37,59.7 -248.68,130.36 -363.53,210.04l-49.07 34.05 38.01 46.03c131.96,159.68 114.97,393.58 -38.73,532.54 -141.46,128.28 -358.78,133.31 -505.59,11.7l-46.03 -38.13 -34.07 49.13c-79.56,114.79 -150.11,237.34 -209.62,364.28l-25.33 53.99 55.9 20.76c194.09,72.08 296.39,283.16 232.91,480.57 -58.51,181.9 -244.08,294.88 -432.13,262.87l-58.94 -10.04 -4.95 59.63c-11.64,140.21 -11.52,281.63 0.32,420.3l5.1 59.35 58.77 -9.96c204.13,-34.37 398.59,97.15 442.35,299.75 40.18,186.52 -64.01,377.22 -242.32,443.57l-56.04 20.81 25.54 54.05c59.75,126.42 130.42,248.79 210.01,363.64l34.02 49.13 46.06 -38.04c159.57,-131.87 393.58,-114.84 532.68,38.62 128.16,141.62 133.19,359.07 11.7,505.78l-38.13 46.03 49.13 34.05c114.65,79.47 237.22,150.02 364.28,209.62l53.99 25.33 20.76 -55.9c72.08,-194.09 283.13,-296.45 480.54,-232.91 167.1,53.74 276.09,214.93 267.88,386.45l-7655.96 0.03 0 109.75 7751.45 0.01 7.79 -45.65c41.14,-241.33 -103.96,-479.94 -337.5,-555.07 -234.15,-75.27 -483.15,31.12 -592.81,244.2 -86.7,-43.17 -170.87,-91.63 -251.38,-144.64 118.4,-185.43 100.54,-434.08 -50.34,-600.77 -164.96,-182.01 -433.73,-214.52 -635.37,-85.08 -53.12,-80.56 -101.67,-164.67 -144.96,-251.03 195,-101.41 303.63,-325.52 256.32,-545.1 -51.94,-240.31 -268.16,-403.48 -508.25,-391.32 -5.91,-96.03 -5.96,-193.12 -0.18,-289.94 219.24,9.15 426.26,-129.81 495.16,-343.95 75.27,-234.07 -31.12,-483.18 -244.2,-592.81 43.11,-86.62 91.57,-170.8 144.64,-251.34 185.54,118.55 434.17,100.63 600.59,-50.38 182.25,-164.75 214.78,-433.56 85.2,-635.23 80.56,-53.18 164.64,-101.73 250.97,-144.98 101.65,194.98 325.92,303.57 545.16,256.06 240.37,-51.73 402.93,-268.48 391.29,-508.07 96.75,-5.84 193.86,-5.93 289.94,-0.14 -9.9,219.88 129.93,426.24 343.95,495.07 234.15,75.36 483.21,-31.18 592.84,-244.34 86.33,43.02 170.52,91.51 251.34,144.75 -118.47,185.63 -100.58,434.19 50.38,600.57 164.9,182.21 433.76,214.72 635.37,85.14 53.09,80.54 101.62,164.61 144.96,250.99 -195.04,101.53 -303.63,325.66 -256.18,545.13 51.68,240.14 267.93,402.61 507.35,391.38 5.19,139.37 -3.13,345.8 -3.18,348.16l-2.34 57.09 2022.28 1.79 7.79 -45.71c35.2,-206.73 -89.08,-411.15 -289.09,-475.48 -197.67,-63.6 -407.82,24.03 -503.7,201.44 -67.05,-33.72 -132.3,-71.27 -194.98,-112.19 96.32,-158.01 79.49,-366.57 -47.74,-507.15 -139.31,-153.72 -365.06,-182.94 -536.83,-77.56 -40.91,-62.65 -78.54,-127.81 -112.42,-194.69 162.18,-88.71 251.75,-277.66 211.83,-462.83 -43.85,-203 -226.01,-341.76 -426.58,-335.51 -4.26,-74.63 -4.29,-149.87 -0.14,-224.85 185.77,5.5 357.27,-114.32 415.37,-294.91 63.55,-197.64 -24.08,-407.79 -201.46,-503.7 33.7,-66.96 71.22,-132.22 112.15,-194.95 158.13,96.46 366.65,79.61 507.03,-47.74 153.87,-139.14 183.17,-364.89 77.61,-536.74 62.65,-40.93 127.79,-78.59 194.67,-112.44 88.85,162.15 277.78,251.73 462.83,211.62 203,-43.66 341.18,-224.71 335.53,-426.47 75.01,-4.2 150.25,-4.26 224.83,-0.12 -4.45,185.08 114.41,357.27 294.91,415.35 197.61,63.55 407.85,-24.12 503.74,-201.58 66.88,33.7 132.1,71.27 194.95,112.27 -96.38,158.15 -79.52,366.71 47.74,507 139.25,153.87 365.06,183.11 536.85,77.59 40.88,62.62 78.52,127.79 112.38,194.69 -162.18,88.79 -251.73,277.75 -211.75,462.83 43.71,202.97 224.83,342.65 426.58,335.53 4.22,75.01 4.26,150.29 0.12,224.89 -185.13,-4.2 -357.27,114.41 -415.35,294.88 -69.76,217.1 42.82,449.28 256.41,528.6l9.23 3.41 6116.43 0.02 0 -109.75 -6096.31 -0.01 0 0.12z"/>
   <path class="fil0" d="M8331.67 2679.47c-723.67,-232.76 -1501.67,166.7 -1734.4,890.33 -112.7,350.53 -82.19,723.98 85.98,1051.56 168.14,327.6 453.82,570.06 804.35,682.79 138.99,44.7 281.6,66.88 423.51,66.88 216,0 430.37,-51.33 628.05,-152.82 327.57,-168.14 570.06,-453.82 682.79,-804.32 232.72,-723.68 -166.68,-1501.72 -890.28,-1734.41zm785.79 1700.79c-103.73,322.62 -326.91,585.52 -628.42,740.29 -301.54,154.79 -645.32,182.85 -967.83,79.09 -322.65,-103.73 -585.55,-326.91 -740.31,-628.39 -154.77,-301.51 -182.9,-645.24 -79.12,-967.87 172.8,-537.37 672.34,-880.46 1208.73,-880.46 128.37,0 258.93,19.66 387.56,61.06 665.98,214.14 1033.57,930.23 819.4,1596.29z"/>
   <path class="fil0" d="M12864.43 989.67c-296.11,-95.25 -611.83,-69.45 -888.71,72.63 -276.88,142.11 -481.79,383.53 -577.09,679.8 -196.63,611.57 140.9,1269.12 752.48,1465.8 118.15,37.98 237.94,56.04 355.86,56.04 492.5,0 951.25,-315.07 1109.92,-808.49 95.27,-296.27 69.45,-611.89 -72.66,-888.74 -142.08,-276.85 -383.52,-481.79 -679.79,-577.06zm647.98 1432.19c-178.13,553.96 -773.66,859.79 -1327.69,681.54 -553.96,-178.15 -859.73,-773.75 -681.57,-1327.69 86.3,-268.34 271.93,-487.03 522.7,-615.74 250.76,-128.74 536.65,-152.1 804.99,-65.77 268.37,86.3 487.03,271.93 615.74,522.7 128.75,250.71 152.11,536.62 65.84,804.95z"/>
  </g>
 </g>
</svg>
