<?xml version="1.0" encoding="utf-8"?>
<!-- Generator: Adobe Illustrator 17.0.0, SVG Export Plug-In . SVG Version: 6.00 Build 0)  -->
<!DOCTYPE svg PUBLIC "-//W3C//DTD SVG 1.1//EN" "http://www.w3.org/Graphics/SVG/1.1/DTD/svg11.dtd">
<svg version="1.1" id="Layer_1" xmlns="http://www.w3.org/2000/svg" xmlns:xlink="http://www.w3.org/1999/xlink" x="0px" y="0px"
	 width="1920px" height="224.947px" viewBox="0 0 1920 224.947" enable-background="new 0 0 1920 224.947" xml:space="preserve">
<g>
	<path fill="#F26724" d="M1349.42,102.195c-5.272-2.137-8.016-7.968-6.261-13.426c1.648-5.121,6.885-8.3,12.174-7.409l2.034,0.345
		l0.173-2.055c0.341-4.041,0.339-8.156-0.005-12.228l-0.173-2.054l-2.033,0.344c-5.765,0.975-11.237-2.734-12.467-8.447
		c-1.135-5.254,1.799-10.628,6.826-12.501l1.935-0.721l-0.883-1.865c-1.741-3.683-3.796-7.242-6.108-10.578l-1.176-1.697
		l-1.59,1.315c-4.497,3.72-11.089,3.241-15.012-1.091c-3.613-3.982-3.754-10.107-0.329-14.247l1.315-1.59l-1.696-1.176
		c-3.351-2.322-6.916-4.376-10.597-6.104l-1.865-0.875l-0.717,1.931c-2.032,5.47-7.982,8.358-13.544,6.568
		c-5.123-1.647-8.308-6.881-7.41-12.174l0.345-2.034l-2.055-0.173c-4.042-0.341-8.157-0.338-12.227,0.005l-2.054,0.173l0.344,2.033
		c0.976,5.759-2.734,11.233-8.448,12.462c-5.249,1.142-10.626-1.796-12.501-6.822l-0.721-1.932l-1.865,0.88
		c-3.679,1.738-7.239,3.794-10.577,6.111l-1.694,1.176l1.313,1.589c3.719,4.499,3.24,11.089-1.092,15.007
		c-3.982,3.616-10.107,3.757-14.248,0.329l-1.59-1.318l-1.177,1.698c-2.318,3.343-4.369,6.91-6.098,10.6l-0.874,1.864l1.93,0.718
		c5.469,2.032,8.351,7.98,6.563,13.542c-1.648,5.126-6.876,8.314-12.177,7.408l-2.037-0.347l-0.171,2.059
		c-0.339,4.071-0.336,8.185,0.008,12.229l0.175,2.052l2.031-0.344c5.759-0.979,11.233,2.735,12.466,8.447
		c1.132,5.257-1.803,10.631-6.828,12.501l-1.936,0.72l0.883,1.867c1.74,3.679,3.795,7.238,6.107,10.577l1.176,1.697l1.591-1.314
		c4.496-3.714,11.091-3.238,15.012,1.089c3.611,3.991,3.753,10.118,0.329,14.253l-1.318,1.59l1.699,1.176
		c3.34,2.315,6.905,4.366,10.598,6.098l1.865,0.875l0.717-1.931c2.032-5.469,7.987-8.352,13.542-6.562
		c4.614,1.483,7.656,5.874,7.559,10.598l-62.599-0.055c0.093-3.072,0.214-8.988-0.08-12.465l-0.174-2.053l-2.032,0.344
		c-7.06,1.191-13.772-3.353-15.28-10.355c-1.391-6.439,2.206-13.027,8.367-15.322l1.935-0.72l-0.883-1.866
		c-2.067-4.372-4.507-8.598-7.253-12.561l-1.176-1.698l-1.59,1.316c-5.512,4.56-13.595,3.975-18.401-1.336
		c-4.428-4.881-4.601-12.39-0.403-17.465l1.316-1.59l-1.697-1.176c-3.983-2.759-8.216-5.197-12.582-7.246l-1.865-0.875l-0.717,1.931
		c-2.49,6.705-9.783,10.246-16.6,8.05c-6.279-2.019-10.183-8.435-9.083-14.923l0.345-2.034l-2.055-0.173
		c-4.795-0.404-9.678-0.402-14.517,0.005l-2.054,0.173l0.344,2.033c1.197,7.06-3.35,13.769-10.353,15.276
		c-6.431,1.396-13.026-2.203-15.324-8.363l-0.721-1.932l-1.865,0.88c-4.365,2.062-8.59,4.503-12.557,7.255l-1.695,1.176l1.313,1.59
		c4.558,5.516,3.971,13.595-1.338,18.395c-4.886,4.431-12.393,4.605-17.464,0.404l-1.59-1.317l-1.177,1.697
		c-2.748,3.965-5.185,8.198-7.241,12.583l-0.875,1.865l1.931,0.717c6.704,2.49,10.238,9.781,8.045,16.6
		c-2.021,6.283-8.431,10.186-14.927,9.08l-2.036-0.347l-0.171,2.06c-0.402,4.843-0.398,9.728,0.011,14.518l0.176,2.05l2.03-0.344
		c7.051-1.187,13.768,3.356,15.28,10.354c1.388,6.443-2.211,13.03-8.37,15.322l-1.936,0.719l0.882,1.867
		c2.064,4.367,4.505,8.594,7.254,12.561l1.175,1.697l1.591-1.314c5.512-4.555,13.595-3.967,18.4,1.334
		c4.427,4.892,4.601,12.403,0.404,17.471l-1.317,1.59l1.697,1.176c3.96,2.745,8.194,5.182,12.583,7.241l1.865,0.875l0.717-1.931
		c2.49-6.704,9.78-10.24,16.599-8.045c5.772,1.856,9.537,7.424,9.253,13.349H0v3.791h1121.39l0.269-1.577
		c1.421-8.336-3.591-16.578-11.658-19.173c-8.088-2.6-16.689,1.075-20.477,8.435c-2.995-1.491-5.902-3.165-8.683-4.996
		c4.09-6.405,3.473-14.994-1.739-20.752c-5.698-6.287-14.982-7.41-21.947-2.939c-1.835-2.783-3.512-5.688-5.007-8.671
		c6.736-3.503,10.488-11.244,8.854-18.829c-1.794-8.301-9.263-13.937-17.556-13.517c-0.204-3.317-0.206-6.671-0.006-10.015
		c7.573,0.316,14.724-4.484,17.104-11.881c2.6-8.085-1.075-16.69-8.435-20.477c1.489-2.992,3.163-5.9,4.996-8.682
		c6.409,4.095,14.997,3.476,20.746-1.74c6.295-5.691,7.419-14.976,2.943-21.942c2.783-1.837,5.687-3.514,8.669-5.008
		c3.511,6.735,11.258,10.486,18.831,8.845c8.303-1.787,13.918-9.274,13.516-17.55c3.342-0.202,6.696-0.205,10.015-0.005
		c-0.342,7.595,4.488,14.723,11.881,17.101c8.088,2.603,16.691-1.077,20.478-8.44c2.982,1.486,5.89,3.161,8.682,5
		c-4.092,6.412-3.474,14.998,1.74,20.745c5.696,6.294,14.983,7.417,21.947,2.941c1.834,2.782,3.51,5.686,5.007,8.67
		c-6.737,3.507-10.488,11.249-8.849,18.83c1.785,8.295,9.255,13.907,17.525,13.519c0.179,4.814-0.108,11.945-0.11,12.026
		l-0.081,1.972l69.854,0.062l0.269-1.579c1.216-7.141-3.077-14.202-9.986-16.424c-6.828-2.197-14.087,0.83-17.399,6.958
		c-2.316-1.165-4.57-2.462-6.735-3.875c3.327-5.458,2.746-12.662-1.649-17.518c-4.812-5.31-12.61-6.319-18.543-2.679
		c-1.413-2.164-2.713-4.415-3.883-6.725c5.602-3.064,8.696-9.591,7.317-15.987c-1.515-7.012-7.807-11.805-14.735-11.589
		c-0.147-2.578-0.148-5.177-0.005-7.767c6.417,0.19,12.341-3.949,14.348-10.187c2.195-6.827-0.832-14.086-6.959-17.399
		c1.164-2.313,2.46-4.567,3.874-6.734c5.462,3.332,12.665,2.75,17.514-1.649c5.315-4.806,6.327-12.604,2.681-18.54
		c2.164-1.414,4.414-2.715,6.724-3.884c3.069,5.601,9.595,8.695,15.987,7.31c7.012-1.508,11.785-7.762,11.59-14.731
		c2.591-0.145,5.19-0.147,7.766-0.004c-0.154,6.393,3.952,12.341,10.187,14.347c6.826,2.195,14.088-0.833,17.4-6.963
		c2.31,1.164,4.563,2.462,6.734,3.878c-3.329,5.463-2.747,12.667,1.649,17.513c4.81,5.315,12.61,6.325,18.544,2.68
		c1.412,2.163,2.712,4.414,3.882,6.725c-5.602,3.067-8.695,9.594-7.314,15.987c1.51,7.011,7.766,11.836,14.735,11.59
		c0.146,2.591,0.147,5.191,0.004,7.768c-6.395-0.145-12.341,3.952-14.347,10.186c-2.41,7.499,1.479,15.519,8.857,18.259l0.319,0.118
		H1920v-3.791H1349.42z"/>
	<path fill="#F26724" d="M1141.432,92.553c-24.997-8.04-51.871,5.758-59.91,30.754c-3.893,12.108-2.839,25.008,2.97,36.323
		c5.808,11.316,15.676,19.691,27.784,23.585c4.801,1.544,9.727,2.31,14.629,2.31c7.461,0,14.866-1.773,21.694-5.279
		c11.315-5.808,19.691-15.676,23.585-27.783C1180.223,127.466,1166.427,100.591,1141.432,92.553z M1168.575,151.302
		c-3.583,11.144-11.292,20.225-21.707,25.571c-10.416,5.347-22.291,6.316-33.431,2.732c-11.145-3.583-20.226-11.292-25.572-21.706
		c-5.346-10.415-6.318-22.288-2.733-33.432c5.969-18.562,23.224-30.413,41.752-30.413c4.434,0,8.944,0.679,13.387,2.109
		C1163.276,103.56,1175.973,128.295,1168.575,151.302z"/>
	<path fill="#F26724" d="M1298.003,34.184c-10.228-3.29-21.134-2.399-30.698,2.509c-9.564,4.909-16.642,13.248-19.934,23.482
		c-6.792,21.125,4.867,43.838,25.992,50.632c4.081,1.312,8.219,1.936,12.292,1.936c17.012,0,32.858-10.883,38.339-27.927
		c3.291-10.234,2.399-21.136-2.51-30.699C1316.577,44.554,1308.237,37.475,1298.003,34.184z M1320.386,83.655
		c-6.153,19.135-26.724,29.699-45.861,23.542c-19.135-6.154-29.697-26.727-23.543-45.861c2.981-9.269,9.393-16.823,18.055-21.269
		c8.662-4.447,18.537-5.254,27.806-2.272c9.27,2.981,16.823,9.393,21.269,18.055C1322.559,64.51,1323.366,74.386,1320.386,83.655z"
		/>
</g>
</svg>
