<?xml version="1.0" encoding="utf-8"?>
<!-- Generator: Adobe Illustrator 17.0.0, SVG Export Plug-In . SVG Version: 6.00 Build 0)  -->
<!DOCTYPE svg PUBLIC "-//W3C//DTD SVG 1.1//EN" "http://www.w3.org/Graphics/SVG/1.1/DTD/svg11.dtd">
<svg version="1.1" id="Layer_1" xmlns="http://www.w3.org/2000/svg" xmlns:xlink="http://www.w3.org/1999/xlink" x="0px" y="0px"
	 width="458px" height="101px" viewBox="0 0 458 101" enable-background="new 0 0 458 101" xml:space="preserve">
<g>
	<g>
		<g>
			
				<linearGradient id="SVGID_1_" gradientUnits="userSpaceOnUse" x1="218.416" y1="-116.0442" x2="218.416" y2="-143.3805" gradientTransform="matrix(1 0 0 -1 -135.92 -82.6)">
				<stop  offset="0" style="stop-color:#029FC7"/>
				<stop  offset="1" style="stop-color:#18549E"/>
			</linearGradient>
			<path fill="url(#SVGID_1_)" d="M80.127,35.418l5.221,17.542V35.418h3.933V61.52h-4.225l-5.412-16.714V61.52h-3.933V35.418H80.127
				z"/>
			
				<linearGradient id="SVGID_2_" gradientUnits="userSpaceOnUse" x1="234.817" y1="-116.0442" x2="234.817" y2="-143.3805" gradientTransform="matrix(1 0 0 -1 -135.92 -82.6)">
				<stop  offset="0" style="stop-color:#029FC7"/>
				<stop  offset="1" style="stop-color:#18549E"/>
			</linearGradient>
			<path fill="url(#SVGID_2_)" d="M93.298,61.52V35.418h11.198v3.954h-7.265v7.12h5.307v3.954h-5.307v7.12h7.265v3.954
				C104.496,61.52,93.298,61.52,93.298,61.52z"/>
			
				<linearGradient id="SVGID_3_" gradientUnits="userSpaceOnUse" x1="253.767" y1="-116.0442" x2="253.767" y2="-143.3805" gradientTransform="matrix(1 0 0 -1 -135.92 -82.6)">
				<stop  offset="0" style="stop-color:#029FC7"/>
				<stop  offset="1" style="stop-color:#18549E"/>
			</linearGradient>
			<path fill="url(#SVGID_3_)" d="M123.865,35.438h4.129l-4.08,26.082h-3.747l-2.244-14.348L115.83,61.52h-3.764L107.7,35.438h4.121
				l2.06,13.968l1.895-13.968h4.12l2.059,13.955L123.865,35.438z"/>
			
				<linearGradient id="SVGID_4_" gradientUnits="userSpaceOnUse" x1="282.653" y1="-116.0442" x2="282.653" y2="-143.3805" gradientTransform="matrix(1 0 0 -1 -135.92 -82.6)">
				<stop  offset="0" style="stop-color:#029FC7"/>
				<stop  offset="1" style="stop-color:#18549E"/>
			</linearGradient>
			<path fill="url(#SVGID_4_)" d="M141.539,61.52h-3.933V35.418h5.645l3.666,18.75l3.519-18.75h5.424V61.52h-3.934V45.118
				l-3.413,16.402h-3.163l-3.81-16.36v16.36H141.539z"/>
			
				<linearGradient id="SVGID_5_" gradientUnits="userSpaceOnUse" x1="301.394" y1="-116.0442" x2="301.394" y2="-143.3805" gradientTransform="matrix(1 0 0 -1 -135.92 -82.6)">
				<stop  offset="0" style="stop-color:#029FC7"/>
				<stop  offset="1" style="stop-color:#18549E"/>
			</linearGradient>
			<path fill="url(#SVGID_5_)" d="M159.875,61.52V35.418h11.198v3.954h-7.265v7.12h5.307v3.954h-5.307v7.12h7.265v3.954
				C171.073,61.52,159.875,61.52,159.875,61.52z"/>
			
				<linearGradient id="SVGID_6_" gradientUnits="userSpaceOnUse" x1="315.5565" y1="-116.0442" x2="315.5565" y2="-143.3805" gradientTransform="matrix(1 0 0 -1 -135.92 -82.6)">
				<stop  offset="0" style="stop-color:#029FC7"/>
				<stop  offset="1" style="stop-color:#18549E"/>
			</linearGradient>
			<path fill="url(#SVGID_6_)" d="M184.996,61.52h-10.719V35.438h3.933v22.169h6.785L184.996,61.52L184.996,61.52z"/>
			
				<linearGradient id="SVGID_7_" gradientUnits="userSpaceOnUse" x1="326.3905" y1="-116.0442" x2="326.3905" y2="-143.3805" gradientTransform="matrix(1 0 0 -1 -135.92 -82.6)">
				<stop  offset="0" style="stop-color:#029FC7"/>
				<stop  offset="1" style="stop-color:#18549E"/>
			</linearGradient>
			<path fill="url(#SVGID_7_)" d="M188.513,39.394h-4.183v-3.956h12.281v3.956h-4.164V61.52h-3.933V39.394H188.513z"/>
			
				<linearGradient id="SVGID_8_" gradientUnits="userSpaceOnUse" x1="338.159" y1="-116.0442" x2="338.159" y2="-143.3805" gradientTransform="matrix(1 0 0 -1 -135.92 -82.6)">
				<stop  offset="0" style="stop-color:#029FC7"/>
				<stop  offset="1" style="stop-color:#18549E"/>
			</linearGradient>
			<path fill="url(#SVGID_8_)" d="M204.206,61.52h-3.934V35.438h3.934V61.52z"/>
			
				<linearGradient id="SVGID_9_" gradientUnits="userSpaceOnUse" x1="350.927" y1="-116.0442" x2="350.927" y2="-143.3805" gradientTransform="matrix(1 0 0 -1 -135.92 -82.6)">
				<stop  offset="0" style="stop-color:#029FC7"/>
				<stop  offset="1" style="stop-color:#18549E"/>
			</linearGradient>
			<path fill="url(#SVGID_9_)" d="M212.638,35.418l5.221,17.542V35.418h3.934V61.52h-4.227l-5.411-16.714V61.52h-3.934V35.418
				H212.638z"/>
			
				<linearGradient id="SVGID_10_" gradientUnits="userSpaceOnUse" x1="367.898" y1="-116.0442" x2="367.898" y2="-143.3805" gradientTransform="matrix(1 0 0 -1 -135.92 -82.6)">
				<stop  offset="0" style="stop-color:#029FC7"/>
				<stop  offset="1" style="stop-color:#18549E"/>
			</linearGradient>
			<path fill="url(#SVGID_10_)" d="M231.989,61.852c-1.735,0-3.209-0.609-4.424-1.831c-1.215-1.221-1.822-2.685-1.822-4.391V41.391
				c0-1.735,0.612-3.207,1.833-4.422s2.691-1.822,4.413-1.822c1.735,0,3.205,0.612,4.413,1.833c1.206,1.221,1.811,2.691,1.811,4.411
				v2.978h-4.081v-3.061c0-0.625-0.223-1.158-0.666-1.601c-0.443-0.446-0.979-0.666-1.601-0.666c-0.625,0-1.156,0.221-1.593,0.666
				c-0.437,0.443-0.655,0.977-0.655,1.601v14.281c0,0.623,0.218,1.153,0.655,1.59c0.437,0.439,0.968,0.658,1.593,0.658
				c0.623,0,1.158-0.218,1.601-0.655c0.443-0.435,0.666-0.966,0.666-1.588v-5.125h-2.185v-3.956h6.265v9.118
				c0,1.735-0.612,3.205-1.833,4.413C235.159,61.249,233.695,61.852,231.989,61.852z"/>
			
				<linearGradient id="SVGID_11_" gradientUnits="userSpaceOnUse" x1="389.978" y1="-116.0442" x2="389.978" y2="-143.3805" gradientTransform="matrix(1 0 0 -1 -135.92 -82.6)">
				<stop  offset="0" style="stop-color:#029FC7"/>
				<stop  offset="1" style="stop-color:#18549E"/>
			</linearGradient>
			<path fill="url(#SVGID_11_)" d="M254.069,61.852c-1.735,0-3.209-0.605-4.424-1.82s-1.822-2.683-1.822-4.402V41.391
				c0-1.735,0.612-3.207,1.833-4.422s2.691-1.822,4.413-1.822c1.735,0,3.205,0.612,4.413,1.833c1.206,1.221,1.811,2.691,1.811,4.411
				v2.978h-4.081v-3.061c0-0.625-0.223-1.158-0.666-1.601c-0.443-0.446-0.979-0.666-1.601-0.666c-0.625,0-1.156,0.221-1.593,0.666
				c-0.437,0.443-0.655,0.977-0.655,1.601v14.281c0,0.623,0.218,1.153,0.655,1.59c0.437,0.439,0.968,0.658,1.593,0.658
				c0.623,0,1.158-0.218,1.601-0.658c0.443-0.437,0.666-0.968,0.666-1.59v-3.602h4.081v3.644c0,1.735-0.612,3.205-1.833,4.413
				C257.239,61.249,255.775,61.852,254.069,61.852z"/>
			
				<linearGradient id="SVGID_12_" gradientUnits="userSpaceOnUse" x1="405.534" y1="-116.0442" x2="405.534" y2="-143.3805" gradientTransform="matrix(1 0 0 -1 -135.92 -82.6)">
				<stop  offset="0" style="stop-color:#029FC7"/>
				<stop  offset="1" style="stop-color:#18549E"/>
			</linearGradient>
			<path fill="url(#SVGID_12_)" d="M264.015,61.52V35.418h11.198v3.954h-7.264v7.12h5.309v3.954h-5.309v7.12h7.264v3.954
				C275.213,61.52,264.015,61.52,264.015,61.52z"/>
			
				<linearGradient id="SVGID_13_" gradientUnits="userSpaceOnUse" x1="421.124" y1="-116.0442" x2="421.124" y2="-143.3805" gradientTransform="matrix(1 0 0 -1 -135.92 -82.6)">
				<stop  offset="0" style="stop-color:#029FC7"/>
				<stop  offset="1" style="stop-color:#18549E"/>
			</linearGradient>
			<path fill="url(#SVGID_13_)" d="M282.835,35.418l5.221,17.542V35.418h3.934V61.52h-4.227l-5.411-16.714V61.52h-3.934V35.418
				H282.835z"/>
			
				<linearGradient id="SVGID_14_" gradientUnits="userSpaceOnUse" x1="437.711" y1="-116.0442" x2="437.711" y2="-143.3805" gradientTransform="matrix(1 0 0 -1 -135.92 -82.6)">
				<stop  offset="0" style="stop-color:#029FC7"/>
				<stop  offset="1" style="stop-color:#18549E"/>
			</linearGradient>
			<path fill="url(#SVGID_14_)" d="M299.833,39.394h-4.183v-3.956h12.282v3.956h-4.164V61.52h-3.934V39.394H299.833z"/>
			
				<linearGradient id="SVGID_15_" gradientUnits="userSpaceOnUse" x1="454.1105" y1="-116.0442" x2="454.1105" y2="-143.3805" gradientTransform="matrix(1 0 0 -1 -135.92 -82.6)">
				<stop  offset="0" style="stop-color:#029FC7"/>
				<stop  offset="1" style="stop-color:#18549E"/>
			</linearGradient>
			<path fill="url(#SVGID_15_)" d="M317.797,35.438c2.191,0,3.801,0.605,4.828,1.811c0.902,1.055,1.352,2.528,1.352,4.413v3.788
				c0,1.846-0.699,3.408-2.102,4.684l2.914,11.386h-4.256l-2.383-9.824c-0.111,0-0.229,0-0.354,0h-2.27v9.824h-3.934V35.438H317.797
				z M320.148,41.725c0-1.512-0.749-2.27-2.248-2.27h-2.372v8.347h2.372c0.625,0,1.156-0.221,1.593-0.666
				c0.437-0.443,0.655-0.979,0.655-1.601V41.725z"/>
			
				<linearGradient id="SVGID_16_" gradientUnits="userSpaceOnUse" x1="470.178" y1="-116.0442" x2="470.178" y2="-143.3805" gradientTransform="matrix(1 0 0 -1 -135.92 -82.6)">
				<stop  offset="0" style="stop-color:#029FC7"/>
				<stop  offset="1" style="stop-color:#18549E"/>
			</linearGradient>
			<path fill="url(#SVGID_16_)" d="M328.659,61.52V35.418h11.198v3.954h-7.264v7.12h5.309v3.954h-5.309v7.12h7.264v3.954
				C339.857,61.52,328.659,61.52,328.659,61.52z"/>
			
				<linearGradient id="SVGID_17_" gradientUnits="userSpaceOnUse" x1="491.572" y1="-116.0442" x2="491.5721" y2="-143.3805" gradientTransform="matrix(1 0 0 -1 -135.92 -82.6)">
				<stop  offset="0" style="stop-color:#029FC7"/>
				<stop  offset="1" style="stop-color:#18549E"/>
			</linearGradient>
			<path fill="url(#SVGID_17_)" d="M355.673,35.438c1.914,0,3.441,0.605,4.579,1.811c1.053,1.153,1.582,2.624,1.582,4.413v3.788
				c0,1.721-0.601,3.192-1.8,4.413c-1.202,1.221-2.654,1.833-4.36,1.833h-2.27v9.824h-3.934V35.438H355.673z M358.024,41.725
				c0-0.679-0.203-1.228-0.614-1.645c-0.409-0.415-0.955-0.625-1.634-0.625h-2.372v8.347h2.372c0.625,0,1.156-0.221,1.593-0.666
				c0.437-0.443,0.655-0.979,0.655-1.601L358.024,41.725L358.024,41.725z"/>
			
				<linearGradient id="SVGID_18_" gradientUnits="userSpaceOnUse" x1="507.7635" y1="-116.0442" x2="507.7635" y2="-143.3805" gradientTransform="matrix(1 0 0 -1 -135.92 -82.6)">
				<stop  offset="0" style="stop-color:#029FC7"/>
				<stop  offset="1" style="stop-color:#18549E"/>
			</linearGradient>
			<path fill="url(#SVGID_18_)" d="M369.098,61.52l-4.664-26.082h4.124l3.272,20.33l3.299-20.33h4.124l-4.745,26.082
				C374.508,61.52,369.098,61.52,369.098,61.52z"/>
			
				<linearGradient id="SVGID_19_" gradientUnits="userSpaceOnUse" x1="524.518" y1="-116.0442" x2="524.518" y2="-143.3805" gradientTransform="matrix(1 0 0 -1 -135.92 -82.6)">
				<stop  offset="0" style="stop-color:#029FC7"/>
				<stop  offset="1" style="stop-color:#18549E"/>
			</linearGradient>
			<path fill="url(#SVGID_19_)" d="M386.64,39.394h-4.183v-3.956h12.282v3.956h-4.164V61.52h-3.934V39.394H386.64z"/>
			
				<linearGradient id="SVGID_20_" gradientUnits="userSpaceOnUse" x1="535.828" y1="-116.0442" x2="535.828" y2="-143.3805" gradientTransform="matrix(1 0 0 -1 -135.92 -82.6)">
				<stop  offset="0" style="stop-color:#029FC7"/>
				<stop  offset="1" style="stop-color:#18549E"/>
			</linearGradient>
			<path fill="url(#SVGID_20_)" d="M397.941,57.607h3.934v3.934h-3.934V57.607z"/>
			
				<linearGradient id="SVGID_21_" gradientUnits="userSpaceOnUse" x1="552.767" y1="-116.0442" x2="552.767" y2="-143.3805" gradientTransform="matrix(1 0 0 -1 -135.92 -82.6)">
				<stop  offset="0" style="stop-color:#029FC7"/>
				<stop  offset="1" style="stop-color:#18549E"/>
			</linearGradient>
			<path fill="url(#SVGID_21_)" d="M422.207,61.52h-10.72V35.438h3.934v22.169h6.785v3.913H422.207z"/>
			
				<linearGradient id="SVGID_22_" gradientUnits="userSpaceOnUse" x1="563.6" y1="-116.0442" x2="563.6" y2="-143.3805" gradientTransform="matrix(1 0 0 -1 -135.92 -82.6)">
				<stop  offset="0" style="stop-color:#029FC7"/>
				<stop  offset="1" style="stop-color:#18549E"/>
			</linearGradient>
			<path fill="url(#SVGID_22_)" d="M425.722,39.394h-4.183v-3.956h12.282v3.956h-4.164V61.52h-3.934V39.394H425.722z"/>
			
				<linearGradient id="SVGID_23_" gradientUnits="userSpaceOnUse" x1="579.584" y1="-116.0442" x2="579.584" y2="-143.3805" gradientTransform="matrix(1 0 0 -1 -135.92 -82.6)">
				<stop  offset="0" style="stop-color:#029FC7"/>
				<stop  offset="1" style="stop-color:#18549E"/>
			</linearGradient>
			<path fill="url(#SVGID_23_)" d="M449.846,55.276c0,1.719-0.603,3.192-1.811,4.413s-2.665,1.831-4.371,1.831h-6.182V35.418h6.182
				c1.721,0,3.181,0.612,4.382,1.831c1.199,1.221,1.8,2.685,1.8,4.393L449.846,55.276L449.846,55.276z M441.416,57.627h2.372
				c0.625,0,1.151-0.225,1.582-0.675c0.43-0.452,0.647-0.983,0.647-1.593V41.703c0-0.623-0.218-1.158-0.655-1.601
				c-0.437-0.446-0.961-0.666-1.573-0.666h-2.372v18.191H441.416z"/>
			
				<linearGradient id="SVGID_24_" gradientUnits="userSpaceOnUse" x1="590.936" y1="-116.0442" x2="590.936" y2="-143.3805" gradientTransform="matrix(1 0 0 -1 -135.92 -82.6)">
				<stop  offset="0" style="stop-color:#029FC7"/>
				<stop  offset="1" style="stop-color:#18549E"/>
			</linearGradient>
			<path fill="url(#SVGID_24_)" d="M453.049,57.607h3.934v3.934h-3.934V57.607z"/>
		</g>
	</g>
	<path fill="#3E1C49" d="M31.607,71.451c-6.741,0-12.936,2.713-13.967,6.541c-1.21,4.49,4.951,8.744,13.963,8.744
		s15.175-4.254,13.968-8.744C44.543,74.164,38.349,71.451,31.607,71.451z M31.604,83.144c-5.309,0-9.203-2.428-8.744-5.152
		c0.416-2.465,4.317-4.299,8.747-4.299s8.33,1.833,8.745,4.299C40.809,80.716,36.914,83.144,31.604,83.144z M62.016,81.724
		l-0.19-1.285c-0.054-0.36-0.647-0.713-1.328-0.794l-3.223-0.51c0,0-1.037-0.202-1.253-0.599c-0.006-0.011-0.02-0.017-0.02-0.017
		c-0.076-0.183-0.144-0.353-0.223-0.526c-0.077-0.164-0.163-0.324-0.248-0.484c-0.003-0.01,0.006-0.017,0.002-0.028
		c-0.144-0.376,0.674-0.561,0.674-0.561l2.579-0.458c0.56-0.071,0.762-0.377,0.458-0.681l-1.027-1.03l-0.986-0.986
		c-0.277-0.277-0.926-0.449-1.454-0.386l-2.636,0.195c0,0-0.889,0.034-1.323-0.25c-0.006-0.004-0.015-0.005-0.021-0.009
		c-0.34-0.259-0.695-0.51-1.063-0.752c0,0-0.004-0.01-0.01-0.014c-0.37-0.283,0.104-0.589,0.104-0.589l1.563-0.847
		c0.354-0.158,0.289-0.444-0.139-0.637l-1.459-0.663l-1.415-0.644c-0.399-0.181-1.004-0.211-1.358-0.067l-1.866,0.631
		c0,0-0.661,0.19-1.202,0.027c-0.014-0.004-0.025-0.004-0.037-0.006c-0.449-0.156-0.904-0.306-1.369-0.447
		c-0.007-0.003-0.009-0.006-0.009-0.006c-0.506-0.177-0.355-0.524-0.355-0.524l0.61-0.997c0.163-0.196-0.096-0.428-0.575-0.521
		l-1.644-0.319l-1.619-0.315c-0.461-0.089-0.98-0.011-1.161,0.175l-1.067,0.88c0,0-0.408,0.284-0.985,0.238l-0.007,0.001
		c-0.515-0.061-1.036-0.11-1.563-0.152l-0.01-0.003c-0.563-0.066-0.703-0.401-0.703-0.401l-0.252-0.996
		c-0.014-0.203-0.418-0.366-0.903-0.366h-1.686H29.93c-0.485,0-0.889,0.163-0.902,0.366l-0.253,0.996c0,0-0.14,0.335-0.703,0.401
		c-0.53,0.042-1.055,0.092-1.573,0.153c-0.57,0.04-0.971-0.239-0.971-0.239l-1.064-0.879c-0.181-0.187-0.699-0.266-1.161-0.176
		l-1.619,0.314l-1.645,0.319c-0.478,0.092-0.737,0.325-0.576,0.52l0.609,0.999c0,0,0.145,0.339-0.336,0.515
		c-0.49,0.146-0.97,0.303-1.441,0.468c-0.541,0.159-1.196-0.029-1.196-0.029l-1.863-0.633c-0.353-0.144-0.959-0.114-1.358,0.067
		l-1.416,0.642l-1.459,0.662c-0.428,0.193-0.494,0.48-0.14,0.638l1.561,0.849c0,0,0.439,0.287,0.127,0.563
		c-0.404,0.264-0.792,0.538-1.164,0.821c-0.445,0.257-1.276,0.227-1.276,0.227l-2.636-0.196c-0.527-0.063-1.176,0.108-1.454,0.385
		L5.035,74.74l-1.03,1.029c-0.304,0.304-0.102,0.61,0.456,0.681l2.577,0.459c0,0,0.781,0.18,0.675,0.542
		c-0.098,0.18-0.195,0.361-0.281,0.544s-0.159,0.366-0.229,0.55c-0.241,0.383-1.237,0.578-1.237,0.578l-3.223,0.508
		c-0.678,0.081-1.274,0.433-1.327,0.792l-0.192,1.285l-0.201,1.347c-0.06,0.401,0.485,0.654,1.216,0.561l3.445-0.287
		c0,0,1.035-0.042,1.279,0.332c0.126,0.427,0.287,0.85,0.485,1.269c0.073,0.448-0.85,0.93-0.85,0.93L3.36,87.362
		c-0.722,0.295-1.077,0.842-0.783,1.223l1.048,1.362l1.095,1.422c0.325,0.421,1.208,0.491,1.962,0.154l3.627-1.411
		c0,0,1.174-0.397,1.784-0.062c0.515,0.357,1.059,0.704,1.64,1.033c0.544,0.404-0.03,1.201-0.03,1.201l-2.141,2.55
		c-0.524,0.538-0.397,1.197,0.294,1.464l2.441,0.946l2.508,0.973c0.734,0.284,1.732,0.036,2.216-0.548l2.476-2.566
		c0,0,0.831-0.753,1.74-0.647c0.819,0.161,1.658,0.298,2.515,0.411v0.001c0.908,0.18,1.037,1.119,1.037,1.119l0.119,3.057
		c-0.043,0.675,0.651,1.231,1.553,1.231l3.135,0.002h3.133c0.902,0.001,1.598-0.555,1.556-1.229l0.125-3.056
		c0,0,0.13-0.939,1.04-1.119l0.016-0.006c0.84-0.111,1.665-0.245,2.469-0.403l0.006,0.001c0.921-0.12,1.765,0.648,1.765,0.648
		l2.47,2.568c0.482,0.586,1.481,0.834,2.217,0.55l2.511-0.97l2.444-0.945c0.692-0.267,0.819-0.925,0.296-1.464l-2.136-2.553
		c0,0-0.589-0.815-0.014-1.215c0.009-0.006,0.008-0.013,0.015-0.02c0.55-0.314,1.068-0.643,1.558-0.981c0,0,0.032-0.006,0.047-0.013
		c0.609-0.344,1.794,0.06,1.794,0.06l3.625,1.413c0.754,0.338,1.638,0.268,1.962-0.153l1.099-1.422l1.052-1.361
		c0.295-0.381-0.058-0.928-0.78-1.224l-3.235-1.506c0,0-0.985-0.511-0.849-0.97c0.003-0.007-0.004-0.014-0.004-0.014
		c0.181-0.389,0.329-0.778,0.448-1.167c0,0,0.012-0.009,0.015-0.015c0.198-0.416,1.31-0.366,1.31-0.366l3.446,0.289
		c0.731,0.093,1.277-0.16,1.217-0.561L62.016,81.724z M31.602,89.752c-12.119,0-19.921-5.863-17.888-11.76
		c1.657-4.805,9.552-8.093,17.893-8.093s16.235,3.289,17.889,8.093C51.527,83.889,43.721,89.752,31.602,89.752z M31.606,75.535
		c-2.533,0-4.686,1.071-4.814,2.458c-0.137,1.465,2.016,2.714,4.813,2.714s4.95-1.249,4.815-2.714
		C36.292,76.605,34.14,75.535,31.606,75.535z M13.418,40.301l1.312,0.011v-0.006h0.954v-5.755h-0.902l0.192-21.313h32.9v21.313
		H46.92v5.755h0.954l0,0h1.311v-2.511h3.883V8.948h-1.311v27.535h-2.572V11.926h-35.51l-0.222,24.557h-3.61V8.948H8.532v28.846
		h4.909L13.418,40.301z M45.522,30.323l-2.395-8.473c-0.569-2.017-0.482-1.864-2.306-3.068c-6.483-4.274-14.125-4.004-19.581,1.191
		c-1.324,1.259-1.231,1.316-1.718,3.015c-0.722,2.52-1.445,4.968-2.168,7.517c2.905-4.766,8.152-7.949,14.141-7.949
		C37.407,22.557,42.594,25.659,45.522,30.323z M31.495,53.909c8.162,0,14.803-6.641,14.803-14.803s-6.641-14.804-14.803-14.804
		c-8.163,0-14.804,6.642-14.804,14.804S23.332,53.909,31.495,53.909z M31.495,25.614c7.439,0,13.492,6.053,13.492,13.493
		c0,7.439-6.053,13.492-13.492,13.492c-7.44,0-13.493-6.053-13.493-13.492C18.002,31.666,24.055,25.614,31.495,25.614z
		 M31.495,51.037c6.578,0,11.931-5.352,11.931-11.931s-5.352-11.931-11.931-11.931c-6.578,0-11.932,5.353-11.932,11.931
		S24.916,51.037,31.495,51.037z M39.655,6.277h0.76c0.574,0,1.063-0.204,1.464-0.614c0.404-0.41,0.606-0.905,0.606-1.48V2.91
		c0-0.6-0.179-1.094-0.531-1.48c-0.382-0.405-0.894-0.608-1.538-0.608h-2.081v8.754h1.32V6.277H39.655z M39.655,2.17h0.797
		c0.227,0,0.41,0.07,0.548,0.209c0.138,0.141,0.207,0.324,0.207,0.553V4.21c0,0.209-0.074,0.389-0.222,0.538
		c-0.147,0.15-0.325,0.224-0.533,0.224h-0.797V2.17z M49.329,8.261h-2.278V0.821h-1.32v8.754h3.597V8.261H49.329z M22.722,4.084
		l1.28,5.49h1.062l1.146-5.504v5.504h1.32V0.815h-1.82l-1.182,6.292l-1.23-6.292h-1.896v8.759h1.32V4.084z M14.797,3.965
		l1.816,5.609h1.418V0.815h-1.32v5.887l-1.752-5.887h-1.483v8.759h1.32V3.965z M32.975,9.687c0.574,0,1.065-0.202,1.475-0.608
		c0.41-0.405,0.614-0.899,0.614-1.48V6.375h-1.369v1.209c0,0.209-0.074,0.388-0.225,0.534c-0.149,0.147-0.328,0.22-0.538,0.22
		c-0.208,0-0.387-0.074-0.533-0.22c-0.148-0.147-0.222-0.325-0.222-0.534V2.791c0-0.209,0.074-0.389,0.222-0.538
		c0.147-0.149,0.325-0.223,0.533-0.223c0.21,0,0.389,0.074,0.538,0.223c0.151,0.149,0.225,0.328,0.225,0.538v1.027h1.369V2.82
		c0-0.578-0.202-1.072-0.608-1.48c-0.406-0.41-0.899-0.615-1.48-0.615c-0.578,0-1.071,0.204-1.48,0.61
		c-0.41,0.408-0.615,0.904-0.615,1.485v4.777c0,0.578,0.204,1.07,0.612,1.478C31.897,9.482,32.393,9.687,32.975,9.687z"/>
	<path fill="#FE5A0E" d="M31.618,58.726c0,0-2.454,3.898-2.645,7.159c-0.106,1.814,0.427,4.025,2.594,4.093v0.006
		c0.017,0,0.033-0.003,0.05-0.003c0.017,0.001,0.032,0.003,0.05,0.003v-0.006c2.167-0.068,2.702-2.279,2.595-4.093
		C34.072,62.624,31.618,58.726,31.618,58.726z M37.682,44.961c-0.288-0.195-0.715-0.229-1.168,0.221
		c-1.205,1.195-1.526-0.535-2.723-0.466c-0.616,0.036-0.829,0.634-1.752,0.699c0,0-0.655,0-0.66,0
		c-0.924-0.065-1.136-0.663-1.752-0.699c-1.196-0.07-1.518,1.661-2.723,0.466c-0.453-0.45-0.88-0.415-1.168-0.221
		c-0.848,0.575,0.213,1.669,0.647,2.282c0.428,0.603,0.8,1.033,1.159,1.438c1.729,1.948,3.09,3.931,3.439,6.616
		c0.115,0.885,0.092,3.138,0.728,3.138c0.549-0.105,0.613-2.252,0.728-3.138c0.349-2.686,1.71-4.669,3.439-6.616
		c0.359-0.405,0.731-0.836,1.159-1.438C37.469,46.63,38.53,45.535,37.682,44.961z"/>
</g>
<g>
	<path fill="#7B7C7F" d="M79.26,85.271l-1.343,4.066h-1.726l4.392-12.928h2.014l4.412,12.928h-1.784l-1.381-4.066H79.26z
		 M83.499,83.968l-1.266-3.722c-0.288-0.844-0.479-1.61-0.671-2.358h-0.039c-0.192,0.767-0.403,1.553-0.652,2.34l-1.266,3.74H83.499
		z"/>
	<path fill="#7B7C7F" d="M88.79,82.567c0-0.959-0.02-1.745-0.077-2.513h1.496l0.096,1.534h0.038c0.46-0.882,1.535-1.745,3.069-1.745
		c1.285,0,3.28,0.768,3.28,3.951v5.543h-1.688v-5.352c0-1.496-0.556-2.742-2.148-2.742c-1.112,0-1.976,0.786-2.263,1.726
		c-0.077,0.211-0.115,0.499-0.115,0.787v5.581H88.79V82.567z"/>
	<path fill="#7B7C7F" d="M105.223,76.41v12.928h-1.669V76.41H105.223z"/>
	<path fill="#7B7C7F" d="M107.907,87.305c0.748,0.46,1.841,0.844,2.992,0.844c1.707,0,2.705-0.901,2.705-2.205
		c0-1.209-0.691-1.899-2.436-2.57c-2.11-0.748-3.414-1.842-3.414-3.664c0-2.014,1.668-3.51,4.181-3.51
		c1.323,0,2.283,0.307,2.858,0.633l-0.46,1.362c-0.422-0.23-1.285-0.614-2.455-0.614c-1.765,0-2.436,1.056-2.436,1.938
		c0,1.208,0.786,1.803,2.57,2.493c2.187,0.844,3.299,1.899,3.299,3.798c0,1.995-1.477,3.721-4.527,3.721
		c-1.247,0-2.608-0.364-3.299-0.824L107.907,87.305z"/>
	<path fill="#7B7C7F" d="M128.638,82.74c0,4.449-2.704,6.809-6.003,6.809c-3.414,0-5.812-2.646-5.812-6.56
		c0-4.104,2.551-6.79,6.003-6.79C126.355,76.199,128.638,78.904,128.638,82.74z M118.606,82.951c0,2.762,1.496,5.236,4.124,5.236
		c2.647,0,4.143-2.437,4.143-5.371c0-2.57-1.342-5.255-4.124-5.255C119.988,77.562,118.606,80.112,118.606,82.951z"/>
	<path fill="#7B7C7F" d="M135.25,88.148c0.364,0.039,0.787,0,1.362-0.058c0.978-0.134,1.899-0.537,2.608-1.208
		c0.825-0.748,1.419-1.842,1.649-3.318h-0.057c-0.691,0.844-1.688,1.343-2.935,1.343c-2.244,0-3.683-1.688-3.683-3.816
		c0-2.359,1.707-4.431,4.258-4.431s4.124,2.071,4.124,5.255c0,2.743-0.92,4.661-2.148,5.85c-0.959,0.94-2.283,1.516-3.625,1.669
		c-0.614,0.096-1.151,0.115-1.554,0.096V88.148z M135.864,80.976c0,1.554,0.94,2.646,2.397,2.646c1.132,0,2.014-0.556,2.455-1.304
		c0.096-0.154,0.153-0.346,0.153-0.614c0-2.129-0.786-3.76-2.551-3.76C136.88,77.944,135.864,79.211,135.864,80.976z"/>
	<path fill="#7B7C7F" d="M152.394,82.97c0,4.239-1.573,6.579-4.334,6.579c-2.436,0-4.085-2.282-4.124-6.406
		c0-4.182,1.803-6.482,4.335-6.482C150.898,76.66,152.394,79,152.394,82.97z M145.624,83.162c0,3.241,0.998,5.082,2.532,5.082
		c1.726,0,2.551-2.014,2.551-5.197c0-3.069-0.786-5.083-2.532-5.083C146.698,77.964,145.624,79.767,145.624,83.162z"/>
	<path fill="#7B7C7F" d="M162.23,82.97c0,4.239-1.573,6.579-4.334,6.579c-2.436,0-4.085-2.282-4.124-6.406
		c0-4.182,1.803-6.482,4.335-6.482C160.734,76.66,162.23,79,162.23,82.97z M155.46,83.162c0,3.241,0.997,5.082,2.532,5.082
		c1.726,0,2.551-2.014,2.551-5.197c0-3.069-0.786-5.083-2.532-5.083C156.534,77.964,155.46,79.767,155.46,83.162z"/>
	<path fill="#7B7C7F" d="M167.444,78.443h-0.038l-2.167,1.17l-0.326-1.285l2.724-1.457h1.438v12.467h-1.63V78.443z"/>
	<path fill="#7B7C7F" d="M173.752,81.589c0-0.71,0.479-1.208,1.15-1.208c0.671,0,1.113,0.498,1.132,1.208
		c0,0.672-0.441,1.189-1.151,1.189C174.212,82.778,173.752,82.261,173.752,81.589z M173.752,88.359c0-0.709,0.479-1.208,1.15-1.208
		c0.671,0,1.113,0.499,1.132,1.208c0,0.672-0.441,1.189-1.151,1.189C174.212,89.549,173.752,89.031,173.752,88.359z"/>
	<path fill="#7B7C7F" d="M177.586,89.338v-1.036l1.323-1.285c3.184-3.03,4.623-4.642,4.642-6.521c0-1.267-0.614-2.437-2.474-2.437
		c-1.132,0-2.072,0.576-2.647,1.056l-0.537-1.189c0.863-0.729,2.091-1.266,3.529-1.266c2.685,0,3.817,1.841,3.817,3.625
		c0,2.301-1.669,4.162-4.296,6.693l-0.998,0.921v0.038h5.601v1.4H177.586z"/>
	<path fill="#7B7C7F" d="M195.708,82.97c0,4.239-1.573,6.579-4.334,6.579c-2.436,0-4.085-2.282-4.124-6.406
		c0-4.182,1.803-6.482,4.335-6.482C194.212,76.66,195.708,79,195.708,82.97z M188.938,83.162c0,3.241,0.998,5.082,2.532,5.082
		c1.726,0,2.551-2.014,2.551-5.197c0-3.069-0.786-5.083-2.532-5.083C190.012,77.964,188.938,79.767,188.938,83.162z"/>
	<path fill="#7B7C7F" d="M205.545,82.97c0,4.239-1.573,6.579-4.334,6.579c-2.436,0-4.085-2.282-4.124-6.406
		c0-4.182,1.803-6.482,4.335-6.482C204.049,76.66,205.545,79,205.545,82.97z M198.774,83.162c0,3.241,0.997,5.082,2.532,5.082
		c1.726,0,2.551-2.014,2.551-5.197c0-3.069-0.786-5.083-2.532-5.083C199.849,77.964,198.774,79.767,198.774,83.162z"/>
	<path fill="#7B7C7F" d="M206.942,86.173c0-1.572,0.94-2.685,2.475-3.337l-0.02-0.058c-1.381-0.652-1.976-1.727-1.976-2.801
		c0-1.976,1.669-3.317,3.855-3.317c2.417,0,3.625,1.515,3.625,3.068c0,1.055-0.518,2.187-2.052,2.915v0.058
		c1.554,0.614,2.513,1.707,2.513,3.223c0,2.167-1.86,3.625-4.239,3.625C208.515,89.549,206.942,87.995,206.942,86.173z
		 M213.655,86.097c0-1.516-1.055-2.244-2.743-2.724c-1.458,0.422-2.244,1.381-2.244,2.57c-0.058,1.266,0.901,2.378,2.493,2.378
		C212.677,88.321,213.655,87.382,213.655,86.097z M209.014,79.863c0,1.246,0.94,1.918,2.378,2.301
		c1.074-0.364,1.899-1.131,1.899-2.263c0-0.997-0.595-2.033-2.11-2.033C209.781,77.868,209.014,78.789,209.014,79.863z"/>
	<path fill="#7B7C7F" d="M230.625,88.916c-0.613,0.307-1.841,0.613-3.414,0.613c-3.645,0-6.387-2.301-6.387-6.54
		c0-4.047,2.743-6.79,6.751-6.79c1.611,0,2.627,0.346,3.069,0.575l-0.402,1.362c-0.634-0.307-1.535-0.537-2.609-0.537
		c-3.03,0-5.044,1.938-5.044,5.332c0,3.165,1.822,5.198,4.968,5.198c1.017,0,2.052-0.211,2.724-0.537L230.625,88.916z"/>
	<path fill="#7B7C7F" d="M240.845,84.619c0,3.434-2.378,4.93-4.622,4.93c-2.513,0-4.45-1.841-4.45-4.775
		c0-3.107,2.033-4.93,4.604-4.93C239.042,79.844,240.845,81.781,240.845,84.619z M233.479,84.716c0,2.033,1.17,3.567,2.82,3.567
		c1.61,0,2.819-1.516,2.819-3.606c0-1.572-0.787-3.567-2.781-3.567C234.343,81.109,233.479,82.951,233.479,84.716z"/>
	<path fill="#7B7C7F" d="M242.972,82.567c0-0.959-0.02-1.745-0.077-2.513h1.478l0.076,1.496h0.058
		c0.518-0.883,1.381-1.707,2.915-1.707c1.267,0,2.226,0.768,2.628,1.86h0.038c0.288-0.518,0.652-0.921,1.036-1.208
		c0.557-0.422,1.17-0.652,2.053-0.652c1.228,0,3.049,0.806,3.049,4.027v5.467h-1.649v-5.256c0-1.783-0.651-2.857-2.014-2.857
		c-0.959,0-1.707,0.71-1.995,1.534c-0.076,0.23-0.134,0.537-0.134,0.844v5.735h-1.649v-5.563c0-1.477-0.652-2.551-1.938-2.551
		c-1.055,0-1.822,0.844-2.091,1.688c-0.096,0.25-0.134,0.537-0.134,0.825v5.601h-1.649V82.567z"/>
	<path fill="#7B7C7F" d="M258.964,83.085c0-1.189-0.039-2.148-0.077-3.03h1.516l0.076,1.592h0.039
		c0.69-1.132,1.783-1.803,3.299-1.803c2.244,0,3.932,1.898,3.932,4.718c0,3.338-2.033,4.987-4.22,4.987
		c-1.228,0-2.302-0.537-2.857-1.458h-0.038v5.045h-1.669V83.085z M260.633,85.56c0,0.249,0.038,0.479,0.076,0.69
		c0.307,1.17,1.323,1.976,2.532,1.976c1.783,0,2.819-1.458,2.819-3.587c0-1.86-0.979-3.452-2.762-3.452
		c-1.151,0-2.226,0.824-2.552,2.091c-0.058,0.211-0.114,0.46-0.114,0.69V85.56z"/>
	<path fill="#7B7C7F" d="M275.014,89.338l-0.134-1.17h-0.058c-0.518,0.729-1.516,1.381-2.839,1.381c-1.88,0-2.839-1.323-2.839-2.666
		c0-2.244,1.995-3.472,5.582-3.452v-0.192c0-0.767-0.211-2.147-2.11-2.147c-0.862,0-1.765,0.269-2.416,0.69l-0.384-1.113
		c0.767-0.498,1.88-0.824,3.05-0.824c2.839,0,3.529,1.938,3.529,3.798v3.472c0,0.806,0.038,1.592,0.153,2.225H275.014z
		 M274.765,84.601c-1.841-0.039-3.932,0.287-3.932,2.091c0,1.093,0.729,1.61,1.592,1.61c1.208,0,1.976-0.767,2.244-1.553
		c0.058-0.173,0.096-0.365,0.096-0.537V84.601z"/>
	<path fill="#7B7C7F" d="M279.116,82.567c0-0.959-0.02-1.745-0.077-2.513h1.496l0.096,1.534h0.039
		c0.46-0.882,1.534-1.745,3.068-1.745c1.285,0,3.28,0.768,3.28,3.951v5.543h-1.688v-5.352c0-1.496-0.556-2.742-2.147-2.742
		c-1.113,0-1.976,0.786-2.264,1.726c-0.077,0.211-0.115,0.499-0.115,0.787v5.581h-1.688V82.567z"/>
	<path fill="#7B7C7F" d="M290.122,80.055l2.033,5.485c0.211,0.614,0.441,1.343,0.595,1.899h0.038
		c0.173-0.557,0.364-1.267,0.595-1.938l1.842-5.447h1.783l-2.531,6.617c-1.209,3.184-2.033,4.814-3.185,5.812
		c-0.824,0.729-1.649,1.017-2.071,1.094l-0.422-1.42c0.422-0.134,0.979-0.402,1.477-0.824c0.461-0.365,1.036-1.017,1.42-1.88
		c0.076-0.173,0.134-0.307,0.134-0.403c0-0.096-0.038-0.229-0.115-0.44l-3.433-8.555H290.122z"/>
</g>
</svg>
